<?xml version="1.0" encoding="UTF-8" standalone="no"?>
<svg
   xmlns:dc="http://purl.org/dc/elements/1.1/"
   xmlns:cc="http://creativecommons.org/ns#"
   xmlns:rdf="http://www.w3.org/1999/02/22-rdf-syntax-ns#"
   xmlns:svg="http://www.w3.org/2000/svg"
   xmlns="http://www.w3.org/2000/svg"
   xmlns:sodipodi="http://sodipodi.sourceforge.net/DTD/sodipodi-0.dtd"
   xmlns:inkscape="http://www.inkscape.org/namespaces/inkscape"
   version="1.1"
   x="0px"
   y="0px"
   viewBox="0 0 128 128"
   xml:space="preserve"
   id="svg2"
   inkscape:version="0.91 r13725"
   sodipodi:docname="raw-package-icon.svg"
   width="128"
   height="128"><metadata
     id="metadata18"><rdf:RDF><cc:Work
         rdf:about=""><dc:format>image/svg+xml</dc:format><dc:type
           rdf:resource="http://purl.org/dc/dcmitype/StillImage" /><dc:title></dc:title></cc:Work></rdf:RDF></metadata><defs
     id="defs16" /><sodipodi:namedview
     pagecolor="#ffffff"
     bordercolor="#666666"
     borderopacity="1"
     objecttolerance="10"
     gridtolerance="10"
     guidetolerance="10"
     inkscape:pageopacity="0"
     inkscape:pageshadow="2"
     inkscape:window-width="1500"
     inkscape:window-height="937"
     id="namedview14"
     showgrid="false"
     inkscape:zoom="1.9666667"
     inkscape:cx="55.6019"
     inkscape:cy="140.73321"
     inkscape:window-x="-8"
     inkscape:window-y="-8"
     inkscape:window-maximized="1"
     inkscape:current-layer="svg2" /><g
     id="g4"
     style="fill:#2f2147;fill-opacity:1"
     transform="matrix(5,0,0,5,4,4)"><g
       id="g6"
       style="fill:#2f2147;fill-opacity:1"><path
         d="M 7.471,8.332 C 7.328,7.934 6.672,7.934 6.53,8.332 l -2.5,7 c -0.093,0.26 0.043,0.546 0.303,0.639 0.261,0.093 0.546,-0.042 0.639,-0.303 L 5.567,14 8.434,14 9.03,15.668 C 9.103,15.873 9.295,16 9.5,16 c 0.056,0 0.112,-0.009 0.168,-0.029 0.26,-0.093 0.395,-0.379 0.303,-0.639 l -2.5,-7 z M 5.924,13 7,9.987 8.076,13 5.924,13 Z M 21.5,1 2.5,1 C 1.122,1 0,2.122 0,3.5 l 0,17 C 0,21.878 1.122,23 2.5,23 l 19,0 c 1.378,0 2.5,-1.122 2.5,-2.5 l 0,-17 C 24,2.122 22.878,1 21.5,1 Z M 6.5,3 C 6.776,3 7,3.224 7,3.5 7,3.776 6.776,4 6.5,4 6.224,4 6,3.776 6,3.5 6,3.224 6.224,3 6.5,3 Z m -2,0 C 4.776,3 5,3.224 5,3.5 5,3.776 4.776,4 4.5,4 4.224,4 4,3.776 4,3.5 4,3.224 4.224,3 4.5,3 Z m -2,0 C 2.776,3 3,3.224 3,3.5 3,3.776 2.776,4 2.5,4 2.224,4 2,3.776 2,3.5 2,3.224 2.224,3 2.5,3 Z m 0,19 C 1.673,22 1,21.327 1,20.5 L 1,6 10.136,6 15.312,22 2.5,22 Z m 12.037,-6.812 c 0.199,0.491 0.724,1.173 1.335,1.866 -0.271,0.284 -0.556,0.546 -0.854,0.785 L 13.452,13 18.4,13 c -0.236,0.789 -0.916,2.095 -1.865,3.293 -0.511,-0.584 -0.927,-1.125 -1.073,-1.482 -0.104,-0.255 -0.396,-0.379 -0.651,-0.275 -0.256,0.104 -0.379,0.396 -0.274,0.652 z M 23,20.5 c 0,0.827 -0.673,1.5 -1.5,1.5 l -5.136,0 -1.016,-3.14 c 0.417,-0.302 0.814,-0.673 1.196,-1.072 0.96,1.012 1.928,1.907 2.118,2.081 C 18.758,19.957 18.879,20 19,20 c 0.135,0 0.271,-0.055 0.369,-0.162 0.187,-0.204 0.172,-0.52 -0.031,-0.707 -0.468,-0.429 -1.331,-1.253 -2.129,-2.097 1.138,-1.403 1.984,-3.011 2.216,-4.035 l 1.074,0 c 0.276,0 0.5,-0.224 0.5,-0.5 0,-0.276 -0.224,-0.5 -0.5,-0.5 l -3.499,0 0,-0.5 c 0,-0.276 -0.224,-0.5 -0.5,-0.5 -0.276,0 -0.5,0.224 -0.5,0.5 l 0,0.5 -2.872,0 -1.941,-6 11.813,0 0,14.501 z"
         id="path8"
         style="fill:#2f2147;fill-opacity:1"
         inkscape:connector-curvature="0" /></g></g></svg>